<?xml version="1.0" encoding="utf-8"?>
<!-- Generator: Adobe Illustrator 19.0.0, SVG Export Plug-In . SVG Version: 6.00 Build 0)  -->
<svg version="1.1" id="layer" xmlns="http://www.w3.org/2000/svg" xmlns:xlink="http://www.w3.org/1999/xlink" x="0px" y="0px"
	 viewBox="-153 -46 652 652" style="enable-background:new -153 -46 652 652;" xml:space="preserve">
<style type="text/css">
	.st0{fill:#E64C38;}
</style>
<path class="st0" d="M334.8,269.1c-2.2,4.9-3.3,10.9-4.3,16.3v1.1c-7.1,17.9-19.5,35.8-30.4,35.8c-5.4,0-7.6-7.1-9.2-19l-3.3-21.7
	L287,274l-11.4-1.6l-11.4,25.5l1.1-19.5l-11.9-1.6c-2.7,10.9-7.1,21.2-11.9,29.9c-6.4,13-19.7,21.2-34.2,21.2h-0.5
	c-11.4,0-21.7-3.3-31.5-8.1v-5.4c24.6-12,46.4-29,64.1-50v-0.5l-9.2-7.1c-14.1,18.3-32.1,33.1-52.7,43.4l-1.1,0.5
	c1.1-33.1,3.3-67.3,4.9-82.5l-11.9-1.1c-1.6,16.3-3.8,53.8-5.4,89l-8.1,2.2l-3.3,10.3l10.9,7.6l-0.5,38v1.1h11.9v-32.6
	c9.8,4.3,20.6,7.1,32,7.1h0.5c18.5,0,34.8-10.3,43.4-25.5l-2.7,21.2l11.4,3.3l18.5-41.8l1.1,8.1c1.1,9.2,4.3,29.3,21.7,29.3
	c10.9,0,20.6-8.1,28.2-19.5c1.1,9.2,3.3,17.4,7.6,23.3c4.3,6.5,11.4,10.9,20.1,10.9c8.8,0.4,16.9-4.5,20.6-12.5
	c6-12.5,3.3-31.5-7.1-45.6c-1.7-1.9-3.5-3.8-5.4-5.4h28.2v17.9c-0.5,32.6,2.7,48.9,10.9,57.6c3.8,3.8,8.7,6,14.1,6h0.5
	c22.8,0,39.6-32.6,43.4-45.6l-11.9-3.3c-3.3,12.5-17.9,36.9-31.5,36.9c-2.7,0-4.3-1.1-5.4-2.2c-7.6-7.6-8.7-32-8.7-50v-18.5
	c23.7-1.5,47.1-7,69-16.3l-4.9-10.9c-16.3,7.6-39.1,13-63,15.2c0.5-15.2,2.2-27.1,4.3-45.6l1.1-14.7l-11.9-1.6l-1.6,14.7
	c-1.6,13-2.7,29.3-3.8,46.2v1.6C393.4,272.9,359.2,275.1,334.8,269.1z M366.3,331c-2.2,4.3-5.4,6-9.2,6c-4.9,0-8.7-2.2-10.9-5.4
	c-6-9.2-6.5-27.1-4.3-41.8l1.1-5.4c6.5,3.3,13.6,8.7,17.4,14.1C369,309.9,370.1,324,366.3,331z M82.8,347.3c-8.7,0-11.9-7.1-13-14.7
	c22.8-10.3,32.6-33.7,32.6-45.1c0-9.8-6.5-13.6-12.5-13.6c-13.6,0-31.5,23.3-32.6,50.5l-11.4,1.1c-5.4,0-9.2-1.1-11.4-3.8
	c-7.6-8.1-7.1-26.1-7.1-39.6v-6.5l-10.9-3.8l-29.9,43.4c-0.5-22.8,1.1-50,3.8-72.2c5.4-21.7,10.3-42.9,7.1-47.2
	c-1.1-1.6-2.7-2.7-5.4-2.7l-4.3,2.2c-5.6,14.6-8.7,30-9.2,45.6c-4.9,18.5-9.8,33.1-15.2,47.8l1.1-2.7
	c-12.5,29.3-35.3,59.2-44.5,60.8c-1.6-2.7-3.3-12.5-1.6-40.2v-2.7l2.2-21.7l32.6-4.3l-2.2-11.9l-28.8,3.8l0.5-5.4
	c1.6-10.9,3.3-23.9,4.3-38.6l-11.9-1.1c-1.1,14.7-2.7,27.1-4.3,38l-0.5,8.1l-36.9,3.8l1.1,12.5l34.2-3.3l-1.6,19.5v3.3
	c-2.2,25.5-1.6,42.9,4.9,49.4c1.6,2.2,4.3,3.3,7.1,3.3c8.7,0,19-8.1,31.5-24.4c9.2-12.5,17.9-26.6,24.4-41.8v-1.1
	c0,16.8,0,32.6,1.1,42.4l10.9,2.7L3,313.1l12.5-17.4c0,13,2.2,26.6,10.3,34.8c5.3,5.4,12.6,8.3,20.1,8.1l13-1.6h-1.1
	c2.7,14.7,11.4,22.8,24.4,22.8c22.8,0,35.3-22.8,39.1-42.4l-11.9-2.2c0,1.1-6.5,32.6-27.1,32.6L82.8,347.3z M89.9,286.5v1.1
	c0,5.4-5.4,22.3-20.1,31.5C72.5,300.1,85,286.5,89.9,286.5z"/>
</svg>
